<!DOCTYPE svg PUBLIC "-//W3C//DTD SVG 20010904//EN" "http://www.w3.org/TR/2001/REC-SVG-20010904/DTD/svg10.dtd">
<svg version="1.0" xmlns="http://www.w3.org/2000/svg" width="3000px" height="3000px" viewBox="0 0 12000 12000" preserveAspectRatio="xMidYMid meet">
<g id="layer101" fill="#010101" stroke="none">
 <path d="M0 6000 l0 -6000 6000 0 6000 0 0 6000 0 6000 -6000 0 -6000 0 0 -6000z"/>
 </g>
<g id="layer102" fill="#fafafa" stroke="none">
 <path d="M0 6000 l0 -6000 6000 0 6000 0 0 6000 0 6000 -6000 0 -6000 0 0 -6000z m6640 1448 c616 -566 1293 -1244 1736 -1738 713 -796 1175 -1486 1340 -2000 86 -267 87 -536 3 -702 -106 -209 -333 -339 -662 -379 -125 -15 -490 -6 -647 16 -1117 156 -2680 835 -4105 1785 -807 538 -1468 1074 -2095 1700 -381 380 -650 685 -936 1062 l-134 177 0 86 c0 78 2 86 18 81 49 -15 394 -65 602 -88 131 -14 613 -17 767 -5 l102 9 16 -26 c20 -30 14 -71 -13 -85 -39 -21 -287 -34 -542 -28 -245 6 -481 27 -709 63 -51 8 -95 13 -97 11 -7 -6 203 -278 344 -447 491 -589 1087 -1164 1752 -1691 1668 -1324 3738 -2330 5129 -2494 167 -20 458 -19 581 0 309 51 485 173 551 384 26 84 28 241 5 364 -91 482 -533 1185 -1280 2037 -436 496 -1123 1188 -1796 1809 -91 83 -169 163 -174 176 -13 34 15 75 52 75 21 0 64 -34 192 -152z m-1573 -1540 c70 -26 151 -101 188 -175 29 -57 30 -61 30 -213 0 -144 -2 -158 -25 -205 -31 -64 -111 -144 -175 -175 -43 -21 -64 -25 -150 -25 -82 0 -109 4 -148 22 -71 33 -150 113 -183 186 -27 58 -28 70 -29 197 0 131 1 137 32 202 84 179 273 255 460 186z"/>
 </g>

</svg>